# xmcd
#
# Track frame offsets:
#  150
#  20645
#  36885
#  52585
#  67632
#  81606
#  96463
#  113836
#  130371
#  147390
#  162010
#  178768
#  195953
#  209869
#  226147
#  247907
#  265914
#  282780
#  300634
#
# Disc length: 4254 seconds
#
# Revision: 1
# Processed by: cddbd v1.5.2PL0 Copyright (c) Steve Scherf et al.
# Submitted via: Collectorz.com_Music_Collector 6.9
#
DISCID=09109c13
DTITLE=Various Artist - The Pink Album - Disk 1
DYEAR=2006
DGENRE=Pop
TTITLE0=The Pussycat Dolls - Don't Cha
TTITLE1=Sugarbabes - Push The Botton
TTITLE2=t.A.T.u - All The Thing She Said
TTITLE3=Bodyrockers - I Like The Way
TTITLE4=Atomic Kitten - Ladies Night
TTITLE5=Dead or Alive - You Spin 'Round (Like A Record)
TTITLE6=S Club 7 - Don't Stop Movin'
TTITLE7=Girls Aloud - Sound Of The Underground
TTITLE8=Deee-Lite - Groove Is In The Heart
TTITLE9=Aqua - Barbie Girl
TTITLE10=Ce Ce Peniston - Finally (7" Choice Mix Edit)
TTITLE11=Womack and Womack - Teardrops
TTITLE12=Mousse T vs. Hot 'n' Juicy - Horny (Horny '98 Radio Edt)
TTITLE13=Boyzone - When The Going Gets Tough
TTITLE14=The Communards - Don't Leave Me This Way
TTITLE15=Cher - If I Could Turn Back Time
TTITLE16=Tiffany - I Think We're Alone Now
TTITLE17=Culture Club - Karma Chameleon
TTITLE18=Hot Chocolate - You Sexy Thing
EXTD=
EXTT0=
EXTT1=
EXTT2=
EXTT3=
EXTT4=
EXTT5=
EXTT6=
EXTT7=
EXTT8=
EXTT9=
EXTT10=
EXTT11=
EXTT12=
EXTT13=
EXTT14=
EXTT15=
EXTT16=
EXTT17=
EXTT18=
PLAYORDER=
